<?xml version="1.0" encoding="utf-8"?>
<!-- Generator: Adobe Illustrator 21.0.2, SVG Export Plug-In . SVG Version: 6.00 Build 0)  -->
<svg version="1.1" id="Слой_1" xmlns="http://www.w3.org/2000/svg" xmlns:xlink="http://www.w3.org/1999/xlink" x="0px" y="0px"
	 viewBox="0 0 146.6 227.6" style="enable-background:new 0 0 146.6 227.6;" xml:space="preserve">
<g>
	<path style="fill:#63676D;" d="M67.8,105.9l0.8,6.4c0.3,2.5,1.6,4.7,3.6,6.2l10.6,8l-0.1-0.6c-0.8-6.1-4-11.7-8.9-15.5L67.8,105.9z
		"/>
	<path style="fill:#63676D;" d="M41,158l28.7,20.7l-3.6-27.9l-12.5-18.8l19.4,14.8l6.1,47.8l25.9,18.7v-14l-14.4-11l-6.6-51.4
		l-17.3-13.1c-3-2.3-4.9-5.6-5.4-9.3l-1.9-14.9l0,0l-6.1-14l28.3,21.6l5.5-4.9l1.3,10.1l7.9,61.6l8.8,6.7V53.1l-14.6-4.8L69.4,24.4
		C62.1,16,53.9,8.4,45,1.6L52,15.2c7.3,14,12.3,29.1,14.8,44.7l0,0l0,0v0L35.8,0c-3.4,20.5-4.5,41.4-3.2,62.1l0.3,5.3l21-11l0,0
		c-13.6,14.1-23.5,31.5-28.5,50.5l-0.8,2.9l24.2,18.5L41,158z"/>
	<path style="fill:#63676D;" d="M105.1,222.4l-32.9-23.7l-1.3-9.9L32.5,161l7.9-29.8l-24.2-18.5l9.8-37l-0.9-14
		c-0.8-13.9-0.6-27.9,0.6-41.8H0v207.8h105.1V222.4z"/>
	<polygon style="fill:#63676D;" points="94.8,41.8 105.1,45.2 105.1,19.9 75.4,19.9 	"/>
	<path style="fill:#63676D;" d="M134.4,105.8c-2.6,2-4.8,4.4-6.5,7.2c-2,3.2-3.3,6.8-3.8,10.5l-1.1,8.5l4.9-3.7l12-9.1
		c2.7-2,4.4-5.1,4.9-8.4l1.8-14.3L134.4,105.8z"/>
</g>
</svg>
