<?xml version="1.0" encoding="utf-8"?>
<!-- Generator: Adobe Illustrator 21.0.2, SVG Export Plug-In . SVG Version: 6.00 Build 0)  -->
<svg version="1.1" id="Слой_1" xmlns="http://www.w3.org/2000/svg" xmlns:xlink="http://www.w3.org/1999/xlink" x="0px" y="0px"
	 viewBox="0 0 122 213.2" style="enable-background:new 0 0 122 213.2;" xml:space="preserve">
<style type="text/css">
	.st0{fill:#FFFFFF;}
</style>
<g>
	<path class="st0" d="M43.2,105.9l0.8,6.4c0.3,2.5,1.6,4.7,3.6,6.2l10.6,8l-0.1-0.6c-0.8-6.1-4-11.7-8.9-15.5L43.2,105.9z"/>
	<path class="st0" d="M16.3,158l28.7,20.7l-3.6-27.9L29,131.9l19.4,14.8l6.1,47.8l25.9,18.7v-14l-14.4-11l-6.6-51.4l-17.3-13.1
		c-3-2.3-4.9-5.6-5.4-9.3l-1.9-14.9l0,0l-6.1-14l28.3,21.6l5.5-4.9l1.3,10.1l7.9,61.6l8.8,6.7V53.1l-14.6-4.8L44.8,24.4
		C37.4,16,29.2,8.4,20.4,1.6l7.1,13.7c7.3,14,12.3,29.1,14.8,44.7l0,0l0,0v0L11.2,0C7.8,20.5,6.7,41.4,8,62.1l0.3,5.3l21-11l0,0
		C15.6,70.5,5.8,87.9,0.8,106.9L0,109.8l24.2,18.5L16.3,158z"/>
	<path class="st0" d="M109.8,105.8c-2.6,2-4.8,4.4-6.5,7.2c-2,3.2-3.3,6.8-3.8,10.5l-1.1,8.5l4.9-3.7l12-9.1c2.7-2,4.4-5.1,4.9-8.4
		l1.8-14.3L109.8,105.8z"/>
</g>
</svg>
